<svg width="21" height="21" viewBox="0 0 21 21" fill="none" xmlns="http://www.w3.org/2000/svg">
<g clip-path="url(#clip0_1_112)">
<path d="M15.013 11.2463C15.0052 9.81275 15.6537 8.73071 16.9662 7.93384C16.2318 6.88306 15.1224 6.30493 13.6576 6.19165C12.2708 6.08228 10.7552 7.00024 10.2005 7.00024C9.61459 7.00024 8.27084 6.23071 7.21616 6.23071C5.03647 6.26587 2.72006 7.96899 2.72006 11.4338C2.72006 12.4573 2.90756 13.5146 3.28256 14.6057C3.78256 16.0393 5.58725 19.5549 7.47006 19.4963C8.45444 19.4729 9.14975 18.7971 10.431 18.7971C11.6732 18.7971 12.3177 19.4963 13.4154 19.4963C15.3138 19.469 16.9466 16.2737 17.4232 14.8362C14.8763 13.637 15.013 11.3206 15.013 11.2463ZM12.8021 4.83228C13.8685 3.56665 13.7708 2.41431 13.7396 2.00024C12.7982 2.05493 11.7083 2.64087 11.0872 3.36353C10.4037 4.13696 10.0013 5.09399 10.0872 6.17212C11.1068 6.25024 12.0365 5.72681 12.8021 4.83228Z" fill="white"/>
</g>
<defs>
<clipPath id="clip0_1_112">
<path d="M2.56381 0.750244H17.5638V20.7502H2.56381V0.750244Z" fill="white"/>
</clipPath>
</defs>
</svg>
